<?xml version="1.0" encoding="utf-8"?>
<!-- Generator: Adobe Illustrator 18.0.0, SVG Export Plug-In . SVG Version: 6.00 Build 0)  -->
<!DOCTYPE svg PUBLIC "-//W3C//DTD SVG 1.1//EN" "http://www.w3.org/Graphics/SVG/1.1/DTD/svg11.dtd">
<svg version="1.1" id="Icon_Set" xmlns="http://www.w3.org/2000/svg" xmlns:xlink="http://www.w3.org/1999/xlink" x="0px" y="0px"
	 viewBox="0 0 256 256" style="enable-background:new 0 0 256 256;" xml:space="preserve">
<style type="text/css">
	.st0{fill:#4C4372;}
	.st1{fill:#F0C48A;}
	.st2{fill:#FD919E;}
	.st3{fill:#D3E6F8;}
	.st4{fill:#A4CFF2;}
	.st5{fill:#FFFFFF;}
	.st6{fill:#7BABF1;}
	.st7{fill:#E8677D;}
</style>
<g>
	<g>
		<g>
			<circle class="st1" cx="128" cy="128" r="103.5"/>
		</g>
	</g>
	<g>
		<path class="st3" d="M150.425,73.557v8.867H79.605v100.02c0,7.171,5.813,12.984,12.985,12.984h83.804h12.984
			c-7.172,0-12.984-5.813-12.984-12.984v-8.867V73.557c0-7.171-5.814-12.985-12.985-12.985S150.425,66.386,150.425,73.557z"/>
	</g>
	<g>
		<path class="st4" d="M176.395,195.428h12.984c-7.172,0-12.984-5.813-12.984-12.985v-8.867V73.557
			c0-7.171-5.814-12.985-12.985-12.985v134.855H176.395z"/>
	</g>
	<g>
		<path class="st6" d="M53.637,73.557v8.867h12.984h12.984h70.819v-8.867c0-7.171,5.813-12.985,12.984-12.985H66.621
			C59.45,60.572,53.637,66.386,53.637,73.557z"/>
	</g>
	<g>
		<path class="st6" d="M202.363,173.576v8.867c0,7.171-5.813,12.984-12.984,12.984l0,0c-7.172,0-12.984-5.813-12.984-12.984v-8.867
			H202.363z"/>
	</g>
	<g>
		<path class="st0" d="M189.398,198.428c-0.004,0-0.012,0-0.02,0H92.591c-8.814,0-15.985-7.17-15.985-15.984V82.424
			c0-1.657,1.343-3,3-3h67.819v-5.867c0-8.814,7.171-15.985,15.984-15.985c8.814,0,15.985,7.171,15.985,15.985v108.886
			c0,5.505,4.479,9.984,9.984,9.984c0.004,0,0.008,0,0.01,0h0.01c1.657,0,3,1.343,3,3S191.056,198.428,189.398,198.428z
			 M82.605,85.424v97.02c0,5.505,4.479,9.984,9.985,9.984h84.314c-2.196-2.738-3.511-6.21-3.511-9.984V73.557
			c0-5.506-4.479-9.985-9.985-9.985s-9.984,4.479-9.984,9.985v8.867c0,1.657-1.343,3-3,3H82.605z"/>
	</g>
	<g>
		<path class="st0" d="M189.409,198.428c-1.657,0-3.005-1.343-3.005-3s1.338-3,2.994-3h0.011c1.656,0,3,1.343,3,3
			S191.065,198.428,189.409,198.428z"/>
	</g>
	<g>
		<path class="st0" d="M189.379,198.428c-8.813,0-15.984-7.17-15.984-15.984v-8.867c0-1.657,1.343-3,3-3h25.969c1.657,0,3,1.343,3,3
			v8.867C205.363,191.257,198.192,198.428,189.379,198.428z M179.395,176.576v5.867c0,5.505,4.479,9.984,9.984,9.984
			s9.984-4.479,9.984-9.984v-5.867H179.395z"/>
	</g>
	<g>
		<path class="st0" d="M150.425,85.424H53.637c-1.657,0-3-1.343-3-3v-8.867c0-8.814,7.171-15.985,15.984-15.985h96.788
			c1.657,0,3,1.343,3,3s-1.343,3-3,3c-5.506,0-9.984,4.479-9.984,9.985v8.867C153.425,84.081,152.082,85.424,150.425,85.424z
			 M56.637,79.424h90.788v-5.867c0-3.774,1.314-7.247,3.511-9.985H66.621c-5.506,0-9.984,4.479-9.984,9.985V79.424z"/>
	</g>
	<g>
		<rect x="103.68" y="95.597" class="st2" width="48.641" height="18.858"/>
	</g>
	<g>
		<rect x="103.68" y="128" class="st2" width="48.641" height="18.858"/>
	</g>
	<g>
		<rect x="103.68" y="160.403" class="st2" width="48.641" height="18.858"/>
	</g>
	<g>
		<path class="st0" d="M152.32,117.456H103.68c-1.657,0-3-1.343-3-3V95.597c0-1.657,1.343-3,3-3h48.641c1.657,0,3,1.343,3,3v18.858
			C155.32,116.112,153.978,117.456,152.32,117.456z M106.68,111.456h42.641V98.597H106.68V111.456z"/>
	</g>
	<g>
		<path class="st0" d="M152.32,149.858H103.68c-1.657,0-3-1.343-3-3V128c0-1.657,1.343-3,3-3h48.641c1.657,0,3,1.343,3,3v18.858
			C155.32,148.515,153.978,149.858,152.32,149.858z M106.68,143.858h42.641V131H106.68V143.858z"/>
	</g>
	<g>
		<path class="st0" d="M152.32,182.261H103.68c-1.657,0-3-1.343-3-3v-18.858c0-1.657,1.343-3,3-3h48.641c1.657,0,3,1.343,3,3v18.858
			C155.32,180.918,153.978,182.261,152.32,182.261z M106.68,176.261h42.641v-12.858H106.68V176.261z"/>
	</g>
	<g>
		<path class="st0" d="M103.68,172.832H91.5c-1.657,0-3-1.343-3-3v-32.403c0-1.657,1.343-3,3-3h12.18c1.657,0,3,1.343,3,3
			s-1.343,3-3,3H94.5v26.403h9.18c1.657,0,3,1.343,3,3S105.337,172.832,103.68,172.832z"/>
	</g>
	<g>
		<path class="st0" d="M164.5,140.429h-12.18c-1.657,0-3-1.343-3-3s1.343-3,3-3h9.18v-26.403h-9.18c-1.657,0-3-1.343-3-3
			s1.343-3,3-3h12.18c1.657,0,3,1.343,3,3v32.403C167.5,139.086,166.157,140.429,164.5,140.429z"/>
	</g>
</g>
</svg>
