<?xml version="1.0" encoding="utf-8"?>
<!-- Generator: Adobe Illustrator 22.0.1, SVG Export Plug-In . SVG Version: 6.00 Build 0)  -->
<svg version="1.1" id="Layer_3" xmlns="http://www.w3.org/2000/svg" xmlns:xlink="http://www.w3.org/1999/xlink" x="0px" y="0px"
	 viewBox="0 0 64 64" style="enable-background:new 0 0 64 64;" xml:space="preserve">
<style type="text/css">
	.st0{fill:#FAF5F5;}
	.st1{fill:#63312D;}
	.st2{fill:#F9A287;}
	.st3{fill:#FCB7A4;}
	.st4{fill:#DB785A;}
	.st5{fill:#E0E0E0;}
	.st6{fill:#84DBFF;}
	.st7{fill:#EFC36A;}
	.st8{fill:#F9DD9D;}
	.st9{fill:#EEC26A;}
	.st10{fill:#A9EBFF;}
	.st11{fill:#52BADB;}
	.st12{fill:#FFFFFF;}
	.st13{fill:#F0EEEE;}
	.st14{fill:#BDBDBD;}
	.st15{fill:#E3DFDF;}
	.st16{fill:#FFE8BB;}
	.st17{fill:#FFF2D2;}
	.st18{fill:#D8C18F;}
	.st19{fill:#EAD194;}
	.st20{fill:#BFA064;}
	.st21{fill:#CCCCCC;}
	.st22{fill:#C5F1FF;}
	.st23{fill:#D3A553;}
	.st24{fill:#67C7E5;}
</style>
<g>
	<path class="st6" d="M7.777,22.697l-0.022,4.127h12.73c0-0.019-0.003-0.038-0.003-0.057c0-4.453,3.61-8.062,8.063-8.062
		c4.453,0,8.062,3.61,8.062,8.062c0,0.019-0.003,0.038-0.003,0.057h12.743l0.007-3.976l-5.551-1.251
		c-0.227-0.669-0.482-1.315-0.791-1.941l3.047-4.792l-5.58-5.591l-4.799,3.039c-0.626-0.309-1.271-0.568-1.939-0.796l-1.241-5.552
		h-7.899l-1.241,5.552c-0.632,0.215-1.245,0.453-1.839,0.742l-4.772-3.071l-5.621,5.55l3.015,4.818
		c-0.313,0.624-0.58,1.265-0.811,1.932L7.777,22.697z"/>
	<g>
		<g>
			<g>
				<path class="st10" d="M35.025,12.676c0.668,0.228,1.313,0.487,1.939,0.796l4.721-2.99L40.48,9.273l-4.799,3.039
					c-0.269-0.133-0.543-0.252-0.819-0.368L35.025,12.676z"/>
			</g>
			<g>
				<path class="st10" d="M9.06,23.857l5.556-1.21c0.232-0.667,0.498-1.308,0.811-1.932l-3.015-4.818l5.621-5.55l4.772,3.071
					c0.594-0.288,1.207-0.526,1.839-0.742l1.241-5.552h6.875l-0.259-1.159h-7.899l-1.241,5.552
					c-0.632,0.215-1.245,0.453-1.839,0.742l-4.772-3.071l-5.621,5.55l3.015,4.818c-0.313,0.624-0.58,1.265-0.812,1.932l-5.556,1.21
					l-0.022,4.127h1.289L9.06,23.857z"/>
			</g>
		</g>
	</g>
	<path class="st22" d="M39.855,26.828c0-0.027,0.004-0.053,0.004-0.08c0-6.248-5.065-11.313-11.313-11.313
		c-6.248,0-11.313,5.065-11.313,11.313c0,0.027,0.004,0.053,0.004,0.08H39.855z"/>
	<path class="st1" d="M49.338,27.324H7.745c-0.133,0-0.261-0.053-0.354-0.147s-0.146-0.223-0.146-0.355l0.022-4.127
		c0.001-0.234,0.165-0.436,0.394-0.485l5.285-1.151c0.187-0.513,0.391-0.998,0.618-1.474l-2.868-4.581
		c-0.124-0.199-0.094-0.457,0.073-0.621l5.621-5.55c0.166-0.166,0.425-0.191,0.622-0.065l4.538,2.922
		c0.416-0.191,0.862-0.371,1.375-0.553l1.18-5.28c0.051-0.229,0.254-0.391,0.488-0.391h7.899c0.234,0,0.437,0.162,0.488,0.391
		l1.181,5.28c0.528,0.188,1.016,0.388,1.479,0.605l4.564-2.891c0.196-0.124,0.457-0.098,0.621,0.069l5.58,5.591
		c0.166,0.166,0.194,0.424,0.068,0.622l-2.897,4.558c0.213,0.457,0.412,0.945,0.602,1.48l5.279,1.19
		c0.228,0.051,0.39,0.254,0.39,0.488l-0.008,3.976C49.837,27.101,49.613,27.324,49.338,27.324z M8.248,26.324h40.59l0.006-3.076
		l-5.16-1.163c-0.17-0.038-0.308-0.162-0.363-0.327c-0.238-0.703-0.488-1.318-0.766-1.881c-0.077-0.156-0.067-0.342,0.026-0.489
		l2.832-4.454L40.399,9.91l-4.46,2.825c-0.147,0.092-0.334,0.102-0.489,0.025c-0.574-0.284-1.188-0.536-1.879-0.771
		c-0.165-0.057-0.289-0.194-0.327-0.364l-1.153-5.161h-7.098l-1.153,5.161c-0.038,0.17-0.162,0.308-0.326,0.364
		c-0.697,0.237-1.264,0.466-1.782,0.718c-0.157,0.077-0.342,0.066-0.489-0.028l-4.435-2.854l-5.051,4.986l2.803,4.478
		c0.092,0.148,0.102,0.334,0.023,0.489c-0.299,0.598-0.556,1.21-0.787,1.873c-0.057,0.164-0.196,0.287-0.366,0.324l-5.165,1.125
		L8.248,26.324z"/>
	<g>
		<path class="st11" d="M21.513,12.258c0.594-0.288,1.207-0.526,1.839-0.742l0.129-0.577l-2.724-1.753l-4.006,0l-0.001,0.005
			L21.513,12.258z"/>
		<path class="st11" d="M35.672,12.313l1.975-1.251l-1.139-5.098h-4.015l1.241,5.552C34.401,11.744,35.046,12.003,35.672,12.313z"/>
		<path class="st11" d="M47.81,21.597c-0.227-0.669-0.482-1.315-0.791-1.941l3.047-4.792l-5.58-5.591l-4.006,0l-0.002,0.008
			l5.573,5.583l-3.047,4.792c0.308,0.626,0.564,1.273,0.791,1.941l5.551,1.251l-0.007,3.976h4.015l0.007-3.976L47.81,21.597z"/>
	</g>
	<g>
		<path class="st1" d="M21.513,12.759c-0.094,0-0.188-0.026-0.271-0.079l-4.764-3.066c-0.188-0.121-0.272-0.352-0.208-0.564
			c0.063-0.212,0.26-0.361,0.48-0.361h4.006c0.096,0,0.19,0.027,0.271,0.079l2.724,1.753c0.176,0.114,0.263,0.325,0.217,0.53
			l-0.129,0.576c-0.038,0.17-0.162,0.308-0.326,0.364c-0.697,0.237-1.264,0.466-1.782,0.718
			C21.662,12.742,21.588,12.759,21.513,12.759z M18.442,9.688l3.108,2.001c0.404-0.187,0.838-0.361,1.333-0.538L20.61,9.688H18.442z
			"/>
		<path class="st1" d="M35.672,12.813c-0.076,0-0.151-0.018-0.222-0.052c-0.571-0.283-1.186-0.535-1.879-0.771
			c-0.165-0.057-0.289-0.194-0.327-0.364l-1.24-5.552c-0.033-0.148,0.003-0.304,0.098-0.422s0.238-0.188,0.39-0.188h4.015
			c0.234,0,0.437,0.162,0.488,0.391l1.14,5.098c0.046,0.206-0.043,0.419-0.221,0.532l-1.975,1.25
			C35.858,12.786,35.764,12.813,35.672,12.813z M34.16,11.136c0.529,0.188,1.018,0.389,1.479,0.605l1.443-0.913l-0.976-4.363h-2.99
			L34.16,11.136z"/>
		<path class="st1" d="M53.353,27.324h-4.016c-0.133,0-0.26-0.053-0.354-0.146c-0.094-0.095-0.146-0.222-0.146-0.354l0.007-3.575
			l-5.16-1.163c-0.17-0.038-0.308-0.162-0.363-0.327c-0.238-0.703-0.488-1.318-0.766-1.881c-0.077-0.156-0.067-0.342,0.026-0.489
			l2.832-4.454l-5.289-5.299c-0.124-0.124-0.174-0.305-0.132-0.475c0.056-0.223,0.258-0.387,0.487-0.387h4.006
			c0.133,0,0.26,0.053,0.354,0.146l5.58,5.591c0.166,0.166,0.194,0.424,0.068,0.622L47.59,19.69c0.214,0.458,0.412,0.946,0.602,1.48
			l5.28,1.19c0.228,0.051,0.39,0.254,0.39,0.488l-0.008,3.976C53.852,27.101,53.629,27.324,53.353,27.324z M49.839,26.324h3.016
			l0.006-3.076l-3.116-0.702c0.064,0.085,0.102,0.19,0.102,0.304L49.839,26.324z M44.177,21.171l3.234,0.729
			c-0.032-0.043-0.058-0.091-0.075-0.143c-0.237-0.701-0.488-1.317-0.766-1.881c-0.076-0.156-0.066-0.342,0.027-0.489l2.832-4.454
			l-5.15-5.16h-2.604l4.729,4.737c0.166,0.166,0.194,0.424,0.068,0.622l-2.897,4.558C43.788,20.147,43.987,20.636,44.177,21.171z"/>
	</g>
	<path class="st12" d="M36.605,26.828c0-0.019,0.003-0.038,0.003-0.057c0-4.453-3.61-8.063-8.063-8.063
		c-4.453,0-8.063,3.61-8.063,8.063c0,0.019,0.003,0.038,0.003,0.057H36.605z"/>
	<path class="st1" d="M36.605,27.328h-16.12c-0.276,0-0.5-0.224-0.5-0.5c-0.003-4.779,3.838-8.62,8.56-8.62s8.563,3.841,8.563,8.563
		C37.108,27.047,36.882,27.328,36.605,27.328z M20.995,26.328h15.1c-0.226-3.96-3.525-7.12-7.55-7.12
		C24.524,19.208,21.225,22.363,20.995,26.328z"/>
	<path class="st1" d="M39.854,27.328H17.236c-0.276,0-0.5-0.224-0.5-0.5c-0.004-6.594,5.295-11.894,11.81-11.894
		c6.514,0,11.813,5.3,11.813,11.813C40.358,27.024,40.131,27.328,39.854,27.328z M17.74,26.328h21.608
		c-0.228-5.775-4.986-10.394-10.803-10.394C22.723,15.935,17.961,20.56,17.74,26.328z"/>
	<rect x="3.083" y="30.824" class="st8" width="53.878" height="27.212"/>
	<polygon class="st16" points="56.961,30.824 5.061,30.824 3.083,30.824 3.083,32.52 3.083,58.035 5.061,58.035 5.061,32.52 
		56.961,32.52 	"/>
	<path class="st1" d="M56.961,58.535H3.083c-0.276,0-0.5-0.224-0.5-0.5V30.823c0-0.276,0.224-0.5,0.5-0.5h53.877
		c0.276,0,0.5,0.224,0.5,0.5v27.212C57.461,58.312,57.237,58.535,56.961,58.535z M3.583,57.535h52.877V31.323H3.583V57.535z"/>
	<rect x="56.961" y="30.824" class="st7" width="3.956" height="27.212"/>
	<path class="st1" d="M60.917,58.535h-3.956c-0.276,0-0.5-0.224-0.5-0.5V30.823c0-0.276,0.224-0.5,0.5-0.5h3.956
		c0.276,0,0.5,0.224,0.5,0.5v27.212C61.417,58.312,61.193,58.535,60.917,58.535z M57.461,57.535h2.956V31.323h-2.956V57.535z"/>
	<rect x="7.736" y="26.828" class="st12" width="41.499" height="26.674"/>
	<path class="st1" d="M49.235,54.002H7.736c-0.276,0-0.5-0.224-0.5-0.5V26.828c0-0.276,0.224-0.5,0.5-0.5h41.499
		c0.276,0,0.5,0.224,0.5,0.5v26.674C49.735,53.778,49.511,54.002,49.235,54.002z M8.236,53.002h40.499V27.328H8.236V53.002z"/>
	<rect x="28.055" y="27.115" class="st1" width="1" height="26.387"/>
	<rect x="11.481" y="31.88" class="st1" width="13.42" height="1"/>
	<rect x="11.481" y="35.051" class="st1" width="13.42" height="1"/>
	<rect x="11.481" y="38.223" class="st1" width="13.42" height="1"/>
	<rect x="11.481" y="41.395" class="st1" width="13.42" height="1"/>
	<rect x="11.481" y="44.566" class="st1" width="13.42" height="1"/>
	<rect x="11.481" y="47.738" class="st1" width="13.42" height="1"/>
	<rect x="32.185" y="31.88" class="st1" width="13.42" height="1"/>
	<rect x="32.185" y="35.051" class="st1" width="13.42" height="1"/>
	<rect x="32.185" y="38.223" class="st1" width="13.42" height="1"/>
	<rect x="32.185" y="41.395" class="st1" width="13.42" height="1"/>
	<rect x="32.185" y="44.566" class="st1" width="13.42" height="1"/>
	<rect x="32.185" y="47.738" class="st1" width="13.42" height="1"/>
	<rect x="49.235" y="26.828" class="st15" width="4.125" height="26.674"/>
	<path class="st1" d="M53.361,54.002h-4.126c-0.276,0-0.5-0.224-0.5-0.5V26.828c0-0.276,0.224-0.5,0.5-0.5h4.126
		c0.276,0,0.5,0.224,0.5,0.5v26.674C53.861,53.778,53.637,54.002,53.361,54.002z M49.735,53.002h3.126V27.328h-3.126V53.002z"/>
</g>
</svg>
