<?xml version="1.0" encoding="utf-8"?>
<!-- Generator: Adobe Illustrator 24.0.0, SVG Export Plug-In . SVG Version: 6.00 Build 0)  -->
<svg version="1.1" id="Layer_1" xmlns="http://www.w3.org/2000/svg" xmlns:xlink="http://www.w3.org/1999/xlink" x="0px" y="0px"
	 viewBox="0 0 256 256" style="enable-background:new 0 0 256 256;" xml:space="preserve">
<style type="text/css">
	.st0{fill:#FFB69F;}
	.st1{fill:#72C2E9;}
	.st2{fill:#C2E5FF;}
	.st3{fill:#FC5D3D;}
	.st4{fill:#AFAFAF;}
	.st5{fill:#FFCBC3;}
	.st6{fill:#F0C020;}
	.st7{fill:#F8E5B0;}
	.st8{fill:#EFEFEF;}
	.st9{fill:#EEC21E;}
	.st10{fill:#FFFFFF;}
	.st11{fill:#F1BF21;}
	.st12{fill:#E8A61E;}
	.st13{fill:#7D7B79;}
	.st14{fill:#B34F33;}
	.st15{fill:#F8E5B2;}
	.st16{fill:#C5E5FE;}
	.st17{fill:#4C4944;}
	.st18{fill:#4BA5C8;}
	.st19{fill:#AFAEAF;}
	.st20{fill:#CF941C;}
	.st21{fill:#7C7B7A;}
	.st22{fill:#FAE0E1;}
	.st23{fill:#13BF6D;}
	.st24{fill:#76FFBB;}
	.st25{fill:#F2E1D7;}
	.st26{fill:#878787;}
	.st27{fill:#F9E5AF;}
	.st28{fill:#E8A61F;}
	.st29{fill:none;stroke:#000000;stroke-width:5;stroke-linecap:round;stroke-linejoin:round;stroke-miterlimit:10;}
	.st30{fill:#EFEFF0;}
	.st31{fill:#E8A61B;}
	.st32{fill:#EFEFEE;}
	.st33{fill:#4C4945;}
	.st34{fill:#EA8F7D;}
	.st35{fill:#D6C0B3;}
	.st36{fill:#EEC120;}
</style>
<g>
</g>
<g>
	<path class="st1" d="M90.2,126.562v31.61H62.7v44.41H14.45v-76.02c0-5.523,4.477-10,10-10H80.2
		C85.723,116.562,90.2,121.039,90.2,126.562z"/>
	<rect x="62.7" y="176.542" class="st3" width="34.74" height="26.04"/>
	<path class="st4" d="M5,202.585v47.25h222.375c13.048,0,23.625-10.577,23.625-23.625s-10.577-23.625-23.625-23.625H5z"/>
	<circle class="st8" cx="33.5" cy="226.21" r="10.631"/>
	<circle class="st8" cx="80.75" cy="226.21" r="10.631"/>
	<circle class="st8" cx="128" cy="226.21" r="10.631"/>
	<circle class="st8" cx="175.25" cy="226.21" r="10.631"/>
	<circle class="st8" cx="222.5" cy="226.21" r="10.631"/>
	<path class="st1" d="M186.17,77.685c0,1.77-0.23,3.49-0.66,5.12c-1.14,4.37-3.72,8.17-7.21,10.84c-3.4,2.64-7.67,4.2-12.3,4.2
		s-8.9-1.56-12.3-4.2c-3.49-2.67-6.07-6.47-7.21-10.84c-0.43-1.63-0.66-3.35-0.66-5.12c0-6.19,2.79-11.74,7.19-15.43
		c3.51-2.96,8.03-4.74,12.98-4.74s9.47,1.78,12.98,4.74C183.38,65.945,186.17,71.495,186.17,77.685z"/>
	<path class="st4" d="M178.98,6.169v56.086c-3.51-2.96-8.03-4.74-12.98-4.74s-9.47,1.78-12.98,4.74V6.169H178.98z"/>
	<path class="st8" d="M169.667,54.002c-1.381,0-2.5-1.119-2.5-2.5V10.168c0-1.381,1.119-2.5,2.5-2.5s2.5,1.119,2.5,2.5v41.333
		C172.167,52.883,171.048,54.002,169.667,54.002z"/>
	<circle class="st4" cx="166" cy="77.681" r="8.167"/>
	<path class="st4" d="M185.51,82.805c-1.14,4.37-3.72,8.17-7.21,10.84l12.08,12.08l-13.261,13.261
		c-2.512,2.512-2.492,6.653,0.052,9.094c2.333,2.239,6.289,2.615,8.973-0.069l11.679-11.679c5.858-5.858,5.858-15.355,0-21.213
		L185.51,82.805z M153.7,93.645c-3.49-2.67-6.07-6.47-7.21-10.84l-12.313,12.313c-5.858,5.858-5.858,15.355,0,21.213l11.679,11.679
		c2.684,2.684,6.639,2.307,8.973,0.069c2.542-2.439,2.566-6.58,0.052-9.094l-13.261-13.261L153.7,93.645z"/>
	<path class="st3" d="M188.292,176.544v-26.042h-44.583v26.042h-22.292v26.042c12.907,0,76.222,0,89.167,0v-26.042H188.292z"/>
	<circle class="st6" cx="39.239" cy="165.408" r="6.92"/>
	<path class="st16" d="M53.581,196.094h-1.723c-1.381,0-2.5-1.119-2.5-2.5s1.119-2.5,2.5-2.5h1.723c1.381,0,2.5,1.119,2.5,2.5
		S54.962,196.094,53.581,196.094z M41.858,196.094H22.95c-1.381,0-2.5-1.119-2.5-2.5v-67.092c0-1.381,1.119-2.5,2.5-2.5
		s2.5,1.119,2.5,2.5v64.592h16.408c1.381,0,2.5,1.119,2.5,2.5S43.239,196.094,41.858,196.094z"/>
	<path d="M78.89,189.53c1.38,0,2.5-1.12,2.5-2.5v-0.79c0-1.38-1.12-2.5-2.5-2.5c-1.38,0-2.5,1.12-2.5,2.5v0.79
		C76.39,188.41,77.51,189.53,78.89,189.53z"/>
	<path d="M87.4,194.81c1.38,0,2.5-1.12,2.5-2.49v-0.79c0-1.38-1.12-2.5-2.5-2.5s-2.5,1.12-2.5,2.5v0.79
		C84.9,193.69,86.02,194.81,87.4,194.81z"/>
	<path d="M46.631,226.208c0-7.241-5.891-13.131-13.131-13.131s-13.131,5.891-13.131,13.131c0,7.24,5.891,13.131,13.131,13.131
		S46.631,233.449,46.631,226.208z M25.369,226.208c0-4.483,3.648-8.131,8.131-8.131s8.131,3.648,8.131,8.131
		s-3.648,8.131-8.131,8.131S25.369,230.692,25.369,226.208z"/>
	<path d="M93.881,226.208c0-7.241-5.891-13.131-13.131-13.131s-13.131,5.891-13.131,13.131c0,7.24,5.891,13.131,13.131,13.131
		S93.881,233.449,93.881,226.208z M72.619,226.208c0-4.483,3.648-8.131,8.131-8.131s8.131,3.648,8.131,8.131
		s-3.648,8.131-8.131,8.131S72.619,230.692,72.619,226.208z"/>
	<path d="M141.131,226.208c0-7.241-5.891-13.131-13.131-13.131c-7.241,0-13.131,5.891-13.131,13.131
		c0,7.24,5.891,13.131,13.131,13.131C135.24,239.339,141.131,233.449,141.131,226.208z M119.869,226.208
		c0-4.483,3.648-8.131,8.131-8.131s8.131,3.648,8.131,8.131s-3.647,8.131-8.131,8.131S119.869,230.692,119.869,226.208z"/>
	<path d="M188.381,226.208c0-7.241-5.891-13.131-13.131-13.131s-13.131,5.891-13.131,13.131c0,7.24,5.891,13.131,13.131,13.131
		S188.381,233.449,188.381,226.208z M167.119,226.208c0-4.483,3.647-8.131,8.131-8.131s8.131,3.648,8.131,8.131
		s-3.647,8.131-8.131,8.131S167.119,230.692,167.119,226.208z"/>
	<path d="M235.631,226.208c0-7.241-5.891-13.131-13.131-13.131s-13.131,5.891-13.131,13.131c0,7.24,5.891,13.131,13.131,13.131
		S235.631,233.449,235.631,226.208z M214.369,226.208c0-4.483,3.647-8.131,8.131-8.131s8.131,3.648,8.131,8.131
		s-3.647,8.131-8.131,8.131S214.369,230.692,214.369,226.208z"/>
	<path d="M227.37,200.08h-14.287v-23.538c0-1.381-1.119-2.5-2.5-2.5h-19.791V150.5c0-1.381-1.119-2.5-2.5-2.5h-44.584
		c-1.381,0-2.5,1.119-2.5,2.5v23.542h-19.792c-1.381,0-2.5,1.119-2.5,2.5v23.538H99.94v-23.54c0-1.381-1.119-2.5-2.5-2.5H65.2
		v-13.37h25c1.38,0,2.5-1.106,2.5-2.5v-31.61c0-6.89-5.61-12.5-12.5-12.5H24.45c-6.89,0-12.5,5.61-12.5,12.5v26.02
		c0,1.38,1.12,2.5,2.5,2.5s2.5-1.12,2.5-2.5v-26.02c0.01-4.13,3.37-7.49,7.5-7.5H80.2c4.13,0.01,7.49,3.37,7.5,7.5v29.11h-25
		c-1.366,0-2.5,1.111-2.5,2.5v41.91H16.95v-27.5c0-1.38-1.12-2.5-2.5-2.5s-2.5,1.12-2.5,2.5v27.5H5c-1.38,0-2.5,1.13-2.5,2.5
		c0,1.38,1.12,2.5,2.5,2.5c9.861,0,212.442,0,222.37,0c11.63,0.02,21.109,9.5,21.13,21.13c-0.021,11.63-9.5,21.1-21.13,21.12H205
		c-1.38,0-2.5,1.12-2.5,2.5c0,1.38,1.12,2.5,2.5,2.5h22.37c14.408,0,26.13-11.646,26.13-26.12
		C253.5,211.776,241.814,200.08,227.37,200.08z M94.94,200.08H65.2v-21.04h29.74V200.08z M163.5,200.08
		c-11.412,0-19.091,0.004-39.462,0.004c-0.013,0-0.025-0.004-0.038-0.004h-0.083v-21.038c14.324,0,25.26,0,39.583,0V200.08z
		 M146.208,174.042V153h39.584v21.042C171.468,174.042,160.532,174.042,146.208,174.042z M208.083,200.08H168.5v-21.038
		c14.349,0,25.259,0,39.583,0V200.08z"/>
	<path d="M2.5,249.83c0,1.38,1.12,2.5,2.5,2.5h180c1.38,0,2.5-1.12,2.5-2.5c0-1.38-1.12-2.5-2.5-2.5H5
		C3.62,247.33,2.5,248.45,2.5,249.83z"/>
	<circle cx="195" cy="249.83" r="2.5"/>
	<circle cx="14.45" cy="162.58" r="2.5"/>
	<path d="M166,67.013c-5.882,0-10.667,4.785-10.667,10.667c0,5.882,4.785,10.667,10.667,10.667s10.667-4.785,10.667-10.667
		C176.667,71.798,171.882,67.013,166,67.013z M166,83.346c-3.125,0-5.667-2.542-5.667-5.667c0-3.125,2.542-5.667,5.667-5.667
		s5.667,2.542,5.667,5.667C171.667,80.804,169.125,83.346,166,83.346z"/>
	<path d="M136.31,187.46c-1.38,0-2.5,1.12-2.5,2.5v0.78c0,1.38,1.12,2.5,2.5,2.5s2.5-1.12,2.5-2.5v-0.78
		C138.81,188.58,137.689,187.46,136.31,187.46z"/>
	<path d="M147.45,191.57c1.38,0,2.5-1.12,2.5-2.5v-0.78c0-1.38-1.12-2.5-2.5-2.5c-1.381,0-2.5,1.12-2.5,2.5v0.78
		C144.95,190.45,146.069,191.57,147.45,191.57z"/>
	<path d="M182.8,189.41c-1.38,0-2.5,1.12-2.5,2.5v0.79c0,1.38,1.12,2.5,2.5,2.5s2.5-1.12,2.5-2.5v-0.79
		C185.3,190.53,184.18,189.41,182.8,189.41z"/>
	<path d="M194.28,192.46c1.38,0,2.5-1.13,2.5-2.5v-0.79c0-1.38-1.12-2.5-2.5-2.5c-1.381,0-2.5,1.12-2.5,2.5v0.79
		C191.78,191.33,192.899,192.46,194.28,192.46z"/>
	<path d="M166.85,157.7c-1.38,0-2.5,1.12-2.5,2.5v0.79c0,1.38,1.12,2.5,2.5,2.5s2.5-1.12,2.5-2.5v-0.79
		C169.35,158.82,168.229,157.7,166.85,157.7z"/>
	<path d="M176.689,162.99c-1.38,0-2.5,1.12-2.5,2.5v0.78c0,1.38,1.12,2.5,2.5,2.5s2.5-1.12,2.5-2.5v-0.78
		C179.189,164.11,178.069,162.99,176.689,162.99z"/>
	<path d="M39.24,145.545c-1.381,0-2.5,1.119-2.5,2.5v8.288c-3.984,1.099-6.921,4.745-6.921,9.073s2.938,7.974,6.921,9.073v8.455
		c0,1.381,1.119,2.5,2.5,2.5s2.5-1.119,2.5-2.5v-8.456c3.982-1.1,6.919-4.745,6.919-9.072s-2.937-7.972-6.919-9.072v-8.289
		C41.74,146.665,40.621,145.545,39.24,145.545z M43.659,165.406c0,2.437-1.983,4.42-4.42,4.42c-2.437,0-4.42-1.983-4.42-4.42
		c0-2.431,1.973-4.408,4.401-4.418c0.007,0,0.013,0.002,0.02,0.002c0.006,0,0.012-0.002,0.019-0.002
		C41.687,161,43.659,162.976,43.659,165.406z"/>
	<path d="M69.015,135.417h10.787c1.381,0,2.5-1.119,2.5-2.5s-1.119-2.5-2.5-2.5H69.015c-1.381,0-2.5,1.119-2.5,2.5
		S67.634,135.417,69.015,135.417z"/>
	<path d="M69.015,144.917h10.787c1.381,0,2.5-1.119,2.5-2.5s-1.119-2.5-2.5-2.5H69.015c-1.381,0-2.5,1.119-2.5,2.5
		S67.634,144.917,69.015,144.917z"/>
	<path d="M130.43,110.76c-1.221,0.662-1.646,2.188-0.99,3.4c0.635,1.154,2.13,1.667,3.4,0.98c1.21-0.66,1.65-2.19,0.99-3.4
		C133.18,110.58,131.6,110.11,130.43,110.76z"/>
	<path d="M175.441,129.881c3.54,3.396,9.018,3.348,12.471-0.105l11.679-11.679c6.839-6.839,6.841-17.908,0-24.749l-11.337-11.337
		c0.276-1.418,0.416-2.869,0.416-4.329c0-6.316-2.608-12.284-7.189-16.553V6.167c0-1.381-1.119-2.5-2.5-2.5s-2.5,1.119-2.5,2.5
		v6.125H155.52V6.167c0-1.381-1.119-2.5-2.5-2.5s-2.5,1.119-2.5,2.5V61.13c-4.583,4.272-7.189,10.238-7.189,16.553
		c0,1.459,0.14,2.909,0.415,4.323L132.41,93.35c-2.61,2.6-4.3,5.89-4.89,9.52c-0.23,1.36,0.69,2.65,2.049,2.87
		c1.36,0.23,2.66-0.71,2.881-2.06c0.42-2.58,1.63-4.93,3.489-6.8l9.551-9.54c1.109,2.358,2.87,4.767,4.55,6.43l-10.19,10.19
		c-0.98,0.98-0.964,2.566,0,3.53l13.26,13.26c1.555,1.554,1.487,4.084-0.01,5.52c-1.492,1.431-3.845,1.564-5.479-0.03l-7.601-7.61
		c-0.95-0.94-2.6-0.94-3.54,0c-0.991,0.99-0.951,2.588-0.01,3.53l0.01,0.01l7.61,7.6c3.444,3.485,8.942,3.461,12.47,0.12
		c3.483-3.361,3.66-9.101,0.09-12.67l-11.5-11.5l8.844-8.835c3.583,2.262,7.689,3.458,12.007,3.458
		c4.322,0,8.431-1.198,12.008-3.457l8.837,8.837l-11.493,11.493C171.842,120.723,171.884,126.468,175.441,129.881z M155.52,17.292
		h20.961v9.926H155.52V17.292z M155.52,32.218h20.961v10.538H155.52V32.218z M155.52,47.756h20.961v9.854
		c-3.217-1.681-6.808-2.597-10.48-2.597c-3.673,0-7.265,0.917-10.48,2.597V47.756z M166,95.343c-9.802,0-17.67-7.979-17.67-17.66
		c0-9.829,8-17.67,17.67-17.67c9.659,0,17.67,7.831,17.67,17.67C183.67,87.386,175.783,95.343,166,95.343z M178.887,120.751
		l13.261-13.261c0.977-0.976,0.977-2.559,0-3.535l-10.189-10.19c1.627-1.612,3.397-3.986,4.552-6.427l9.546,9.546
		c4.884,4.883,4.886,12.791,0,17.677l-11.679,11.679c-1.688,1.687-4.106,1.343-5.475,0.033
		C177.378,124.81,177.354,122.285,178.887,120.751z"/>
</g>
</svg>
