<?xml version="1.0" encoding="UTF-8"?>
<!DOCTYPE svg PUBLIC "-//W3C//DTD SVG 1.1//EN" "http://www.w3.org/Graphics/SVG/1.1/DTD/svg11.dtd">
<!-- Creator: CorelDRAW -->
<svg xmlns="http://www.w3.org/2000/svg" xml:space="preserve" width="2048px" height="2048px" style="shape-rendering:geometricPrecision; text-rendering:geometricPrecision; image-rendering:optimizeQuality; fill-rule:evenodd; clip-rule:evenodd"
viewBox="0 0 2048 2048"
 xmlns:xlink="http://www.w3.org/1999/xlink">
 <defs>
  <style type="text/css">
   <![CDATA[
    .fil12 {fill:none}
    .fil6 {fill:#00ACC1}
    .fil11 {fill:#6C828C}
    .fil8 {fill:#78909C}
    .fil10 {fill:#82949D}
    .fil9 {fill:#90A4AE}
    .fil7 {fill:#B2EBF2}
    .fil3 {fill:#E8C735}
    .fil0 {fill:#FDD835}
    .fil4 {fill:#37474F;fill-rule:nonzero}
    .fil5 {fill:#455A64;fill-rule:nonzero}
    .fil2 {fill:#E8C735;fill-rule:nonzero}
    .fil1 {fill:#FDD835;fill-rule:nonzero}
   ]]>
  </style>
 </defs>
 <g id="Layer_x0020_1">
  <metadata id="CorelCorpID_0Corel-Layer"/>
  <g id="_360983552">
   <path id="_364002936" class="fil0" d="M580.307 1324.23c79.4398,0 143.838,64.3985 143.838,143.838 0,53.2406 -28.9264,99.7205 -71.9197,124.591l0 105.736 -143.839 0 0 -105.736c-42.991,-24.8705 -71.9186,-71.3516 -71.9186,-124.591 0,-79.4398 64.3985,-143.838 143.839,-143.838z"/>
   <path id="_364002840" class="fil1" d="M599.222 1199.56c0,-10.4469 -8.46969,-18.9165 -18.9154,-18.9165 -10.4469,0 -18.9165,8.46969 -18.9165,18.9165l0 57.5268c0,10.4457 8.46969,18.9154 18.9165,18.9154 10.4457,0 18.9154,-8.46969 18.9154,-18.9154l0 -57.5268z"/>
   <path id="_364002456" class="fil2" d="M730.882 1244.99c5.22284,-9.0189 2.14606,-20.5654 -6.87166,-25.7882 -9.0189,-5.22284 -20.5654,-2.14606 -25.7882,6.87166l-28.7634 49.8201c-5.22402,9.0189 -2.14725,20.5642 6.87166,25.7882 9.0189,5.22284 20.5642,2.14606 25.7882,-6.87284l28.7634 -49.8189z"/>
   <path id="_364002528" class="fil2" d="M822.284 1350.13c9.0189,-5.22284 12.0945,-16.7693 6.87166,-25.787 -5.22284,-9.0189 -16.7693,-12.0957 -25.787,-6.87284l-49.8201 28.7646c-9.0189,5.22284 -12.0957,16.7693 -6.87166,25.787 5.22284,9.0189 16.7681,12.0957 25.787,6.87166l49.8201 -28.7634z"/>
   <path id="_364002768" class="fil1" d="M357.245 1317.47c-9.0189,-5.22284 -20.5642,-2.14606 -25.7882,6.87284 -5.22284,9.01772 -2.14606,20.5642 6.87166,25.787l49.8201 28.7634c9.0189,5.22402 20.5642,2.14725 25.7882,-6.87166 5.22284,-9.01772 2.14606,-20.5642 -6.87166,-25.787l-49.8201 -28.7646z"/>
   <path id="_364002264" class="fil1" d="M462.39 1226.07c-5.22284,-9.01772 -16.7693,-12.0945 -25.787,-6.87166 -9.0189,5.22284 -12.0957,16.7693 -6.87166,25.7882l28.7634 49.8189c5.22284,9.0189 16.7693,12.0957 25.787,6.87284 9.0189,-5.22402 12.0957,-16.7693 6.87284,-25.7882l-28.7646 -49.8201z"/>
   <path id="_364002552" class="fil3" d="M580.306 1180.64l0 95.3587c10.4469,0 18.9165,-8.46851 18.9165,-18.9154l0 -57.528c0,-10.4457 -8.46969,-18.9154 -18.9165,-18.9154z"/>
   <path id="_364002624" class="fil3" d="M580.306 1324.23l0 374.166 71.9197 0 0 -105.736c42.9933,-24.8705 71.9197,-71.3504 71.9197,-124.591 0,-79.4398 -64.3985,-143.839 -143.839,-143.839z"/>
   <path id="_364002144" class="fil4" d="M557.039 1745.2c-12.9236,0 -23.4012,10.4776 -23.4012,23.4012 0,12.9225 10.4776,23.4 23.4012,23.4l46.5355 0c12.9225,0 23.4,-10.4776 23.4,-23.4 0,-12.9236 -10.4776,-23.4012 -23.4,-23.4012l-46.5355 0z"/>
   <path id="_364002408" class="fil4" d="M536.229 1698.4c-12.9236,0 -23.4,10.4776 -23.4,23.4 0,12.9236 10.4764,23.4012 23.4,23.4012l88.1552 0c12.9225,0 23.4,-10.4776 23.4,-23.4012 0,-12.9225 -10.4776,-23.4 -23.4,-23.4l-88.1552 0z"/>
   <polygon id="_364002384" class="fil5" points="594.068,458.482 397.324,458.479 397.324,1002.34 710.019,1002.34 710.019,1068.65 364.17,1068.65 331.014,1068.65 331.014,1035.5 331.014,425.455 331.014,392.429 364.17,392.429 594.068,392.431 "/>
   <polygon id="_364001880" class="fil6" points="1618.15,255.999 567.518,255.999 567.518,594.915 1618.15,594.915 "/>
   <polygon id="_364001688" class="fil4" points="647.908,906.19 777.216,1035.5 647.908,1164.81 "/>
   <polygon id="_364001328" class="fil4" points="1135.21,1774.85 1005.9,1645.54 1135.21,1516.23 "/>
   <polygon id="_364001424" class="fil5" points="1482.58,1002.48 1685.93,1002.47 1719.09,1002.47 1719.09,1035.5 1719.09,1645.54 1719.09,1678.7 1685.93,1678.7 1058.21,1678.7 1058.21,1612.39 1652.78,1612.39 1652.78,1068.53 1482.58,1068.53 "/>
   <polygon id="_364001592" class="fil7" points="652.249,527.189 991.494,527.189 991.494,323.725 652.249,323.725 "/>
   <polygon id="_364001640" class="fil7" points="1058.94,391.507 1126.73,391.507 1126.73,323.725 1058.94,323.725 "/>
   <polygon id="_364002000" class="fil7" points="1160.62,391.507 1228.4,391.507 1228.4,323.725 1160.62,323.725 "/>
   <polygon id="_364001784" class="fil7" points="1262.29,391.507 1330.07,391.507 1330.07,323.725 1262.29,323.725 "/>
   <polygon id="_490149488" class="fil7" points="1431.75,391.507 1431.75,323.725 1363.96,323.725 1363.96,391.507 "/>
   <polygon id="_490147160" class="fil7" points="1465.64,391.507 1533.42,391.507 1533.42,323.725 1465.64,323.725 "/>
   <polygon id="_360994472" class="fil7" points="1465.64,527.073 1533.42,527.073 1533.42,459.291 1465.64,459.291 "/>
   <polygon id="_360984944" class="fil7" points="1363.96,527.073 1431.75,527.073 1431.75,459.291 1363.96,459.291 "/>
   <polygon id="_360984560" class="fil7" points="1330.07,527.073 1330.07,459.291 1262.29,459.291 1262.29,527.073 "/>
   <polygon id="_360984344" class="fil7" points="1160.62,527.073 1228.4,527.073 1228.4,459.291 1160.62,459.291 "/>
   <polygon id="_360984056" class="fil7" points="1058.94,527.073 1126.73,527.073 1126.73,459.291 1058.94,459.291 "/>
   <path id="_360984032" class="fil8" d="M1062.12 766.817l61.4221 0 13.337 93.3497c35.7177,8.58898 67.4587,27.391 91.9631,53.139l87.5552 -35.1449 30.7134 53.1957 -74.1697 58.2189c4.96181,16.8449 7.63465,34.6725 7.63465,53.126 0,18.4536 -2.67638,36.2788 -7.63701,53.1237l74.1721 58.2213 -30.7122 53.1945 -87.5434 -35.139c-24.5079,25.7551 -56.2559,44.5571 -91.9784,53.1461l-13.3335 93.3379 -61.4233 0 -13.337 -93.3497c-35.7177,-8.58898 -67.4587,-27.3898 -91.9642,-53.139l-87.5552 35.1449 -30.7122 -53.1945 74.1697 -58.2201c-4.963,-16.8449 -7.63465,-34.6713 -7.63465,-53.126 0,-18.4536 2.67047,-36.2811 7.63347,-53.126l-74.1686 -58.2178 30.711 -53.1957 87.5564 35.1437c24.5079,-25.7469 56.2465,-44.55 91.9642,-53.139l13.337 -93.3497zm-45.9839 275.884c0,42.3579 34.3382,76.6961 76.6961,76.6961 42.3567,0 76.6949,-34.3382 76.6949,-76.6961 0,-42.3579 -34.3382,-76.6961 -76.6949,-76.6961 -42.3579,0 -76.6961,34.3382 -76.6961,76.6961z"/>
   <path id="_360983960" class="fil9" d="M1072.09 778.312l-13.0299 91.2083 -7.58859 1.8248c-32.9906,7.93229 -62.9422,25.3205 -86.3245,49.8863l-5.37402 5.64685 -85.5379 -34.3347 -20.7425 35.928 72.4583 56.876 -2.20276 7.47638c-4.77402,16.2012 -7.16457,32.9906 -7.16457,49.878 0,16.8886 2.39292,33.6768 7.16575,49.878l2.20158 7.47756 -72.4583 56.876 20.7425 35.9268 85.5379 -34.3335 5.3752 5.64685c23.3799,24.5669 53.3339,41.954 86.3233,49.8874l7.58977 1.82362 13.0288 91.2072 41.4851 0 13.0276 -91.1953 7.58741 -1.8248c32.9965,-7.93347 62.9563,-25.3217 86.3398,-49.8933l5.3752 -5.64685 85.5249 34.3288 20.7414 -35.9268 -72.4607 -56.8772 2.20276 -7.47756c4.77284,-16.2012 7.16812,-32.9882 7.16812,-49.8768 0,-16.8874 -2.39292,-33.6768 -7.16575,-49.878l-2.20276 -7.47638 72.4583 -56.8772 -20.7414 -35.9268 -85.5379 34.3347 -5.3752 -5.64685c-23.3799,-24.5669 -53.3339,-41.954 -86.3245,-49.8874l-7.58859 -1.8248 -13.0288 -91.2072 -41.4851 0zm-55.9524 264.39c0,42.3579 34.3382,76.6961 76.6961,76.6961 42.3567,0 76.6949,-34.3382 76.6949,-76.6961 0,-42.3579 -34.3382,-76.6961 -76.6949,-76.6961 -42.3579,0 -76.6961,34.3382 -76.6961,76.6961z"/>
   <path id="_360983696" class="fil10" d="M923.749 992.824c-4.77402,16.2012 -7.16457,32.9906 -7.16457,49.878 0,16.8886 2.39292,33.6768 7.16575,49.878l2.20158 7.47756 -72.4583 56.876 20.7425 35.9268 85.5379 -34.3335 5.3752 5.64685c23.3799,24.5669 53.3339,41.954 86.3233,49.8874l7.58977 1.82362 13.0288 91.2072 20.7425 0 0 -187.694c-42.3579,-0.0011811 -76.6949,-34.3382 -76.6949,-76.6961 0,-42.3579 34.337,-76.6949 76.6949,-76.6961l0 -187.694 -20.7425 0 -13.0299 91.2083 -7.58859 1.8248c-32.9906,7.93229 -62.9422,25.3205 -86.3245,49.8863l-5.37402 5.64685 -85.5379 -34.3347 -20.7425 35.928 72.4583 56.876 -2.20276 7.47638z"/>
   <path id="_360983336" class="fil11" d="M1048.79 860.168c-35.7189,8.5878 -67.4564,27.391 -91.9631,53.1378l-87.5564 -35.1437 -30.7122 53.1957 74.1686 58.2178c-4.963,16.8449 -7.63347,34.6725 -7.63347,53.126 0,18.4536 2.67166,36.2811 7.63465,53.126l-74.1697 58.2201 30.7122 53.1945 87.5564 -35.1449c24.5043,25.7481 56.2453,44.55 91.9631,53.139l13.3358 93.3497 30.7122 0 0 -11.4945 -20.7425 0 -13.0299 -91.2072 -7.58741 -1.8248c-32.9906,-7.93229 -62.9445,-25.3193 -86.3245,-49.8863l-5.3752 -5.64685 -85.5379 34.3347 -20.7414 -35.928 72.4571 -56.876 -2.20276 -7.47638c-4.77166,-16.2024 -7.16457,-32.9906 -7.16457,-49.8792 0,-16.8874 2.39055,-33.6768 7.16457,-49.878l2.20276 -7.47756 -72.4583 -56.8748 20.7425 -35.928 85.5379 34.3335 5.37402 -5.64567c23.3823,-24.5646 53.3327,-41.954 86.3245,-49.8874l7.58859 -1.82362 13.0299 -91.2083 20.7425 0 0 -11.4945 -30.7122 0 -13.3358 93.3509z"/>
  </g>
 </g>
 <rect class="fil12" width="2048" height="2048"/>
</svg>
