<?xml version="1.0" encoding="utf-8"?>
<!-- Generator: Adobe Illustrator 22.0.1, SVG Export Plug-In . SVG Version: 6.00 Build 0)  -->
<svg version="1.1" id="Layer_3" xmlns="http://www.w3.org/2000/svg" xmlns:xlink="http://www.w3.org/1999/xlink" x="0px" y="0px"
	 viewBox="0 0 64 64" style="enable-background:new 0 0 64 64;" xml:space="preserve">
<style type="text/css">
	.st0{fill:#FAF5F5;}
	.st1{fill:#63312D;}
	.st2{fill:#F9A287;}
	.st3{fill:#FCB7A4;}
	.st4{fill:#DB785A;}
	.st5{fill:#E0E0E0;}
	.st6{fill:#84DBFF;}
	.st7{fill:#EFC36A;}
	.st8{fill:#F9DD9D;}
	.st9{fill:#EEC26A;}
	.st10{fill:#A9EBFF;}
	.st11{fill:#52BADB;}
	.st12{fill:#FFFFFF;}
	.st13{fill:#F0EEEE;}
	.st14{fill:#BDBDBD;}
	.st15{fill:#E3DFDF;}
	.st16{fill:#FFE8BB;}
	.st17{fill:#FFF2D2;}
	.st18{fill:#D8C18F;}
	.st19{fill:#EAD194;}
	.st20{fill:#BFA064;}
	.st21{fill:#CCCCCC;}
	.st22{fill:#C5F1FF;}
	.st23{fill:#D3A553;}
	.st24{fill:#67C7E5;}
</style>
<g>
	<path class="st0" d="M51.705,46.445H23.877c-1.657,0-3-1.343-3-3V6.083c0-1.657,1.343-3,3-3h27.829c1.657,0,3,1.343,3,3v37.361
		C54.705,45.102,53.362,46.445,51.705,46.445z"/>
	<path class="st8" d="M54.705,10.762V6.033c0-1.629-1.321-2.95-2.95-2.95H23.826c-1.629,0-2.95,1.321-2.95,2.95v4.729H54.705z"/>
	<path class="st16" d="M22.668,6.745c0-1.105,0.895-2,2-2h28.879c0.329,0,0.639,0.066,0.934,0.165
		c-0.442-1.072-1.495-1.827-2.726-1.827H23.826c-1.629,0-2.95,1.321-2.95,2.95v4.729h1.792V6.745z"/>
	<path class="st1" d="M51.705,46.945H23.877c-1.93,0-3.5-1.57-3.5-3.5V6.083c0-1.93,1.57-3.5,3.5-3.5h27.828
		c1.93,0,3.5,1.57,3.5,3.5v37.361C55.205,45.375,53.635,46.945,51.705,46.945z M23.877,3.583c-1.379,0-2.5,1.122-2.5,2.5v37.361
		c0,1.378,1.121,2.5,2.5,2.5h27.828c1.379,0,2.5-1.122,2.5-2.5V6.083c0-1.378-1.121-2.5-2.5-2.5H23.877z"/>
	<path class="st7" d="M54.88,3.083h-3.125c1.629,0,2.95,1.321,2.95,2.95v37.462c0,1.629-1.321,2.95-2.95,2.95h3.125
		c1.629,0,2.95-1.321,2.95-2.95V6.033C57.83,4.404,56.509,3.083,54.88,3.083z"/>
	<path class="st1" d="M54.88,46.945h-3.124c-0.276,0-0.5-0.224-0.5-0.5s0.224-0.5,0.5-0.5c1.351,0,2.449-1.099,2.449-2.45V6.033
		c0-1.351-1.099-2.45-2.449-2.45c-0.276,0-0.5-0.224-0.5-0.5s0.224-0.5,0.5-0.5h3.124c1.902,0,3.45,1.547,3.45,3.45v37.462
		C58.33,45.397,56.782,46.945,54.88,46.945z M54.182,45.945h0.698c1.351,0,2.45-1.099,2.45-2.45V6.033c0-1.351-1.1-2.45-2.45-2.45
		h-0.698c0.632,0.625,1.023,1.493,1.023,2.45v37.462C55.205,44.452,54.813,45.319,54.182,45.945z"/>
	<rect x="20.877" y="10.262" class="st1" width="33.758" height="1"/>
	<rect x="23.642" y="5.763" class="st6" width="2.13" height="2.13"/>
	<rect x="27.042" y="5.763" class="st2" width="2.13" height="2.13"/>
	<rect x="30.443" y="5.763" class="st6" width="2.13" height="2.13"/>
	<rect x="34.683" y="6.329" class="st1" width="17.073" height="1"/>
	<rect x="23.919" y="14.891" class="st1" width="6.247" height="1"/>
	<rect x="29.465" y="17.859" class="st1" width="17.877" height="1"/>
	<rect x="37.085" y="23.795" class="st1" width="14.671" height="1"/>
	<rect x="37.085" y="29.73" class="st1" width="14.671" height="1"/>
	<rect x="37.085" y="26.763" class="st1" width="13.453" height="1"/>
	<rect x="31.479" y="32.698" class="st1" width="15.33" height="1"/>
	<rect x="31.479" y="38.634" class="st1" width="15.33" height="1"/>
	<rect x="29.149" y="35.667" class="st1" width="22.606" height="1"/>
	<rect x="29.149" y="41.602" class="st1" width="22.606" height="1"/>
	<rect x="31.56" y="14.891" class="st1" width="20.196" height="1"/>
	<path class="st0" d="M36.999,60.917H9.17c-1.657,0-3-1.343-3-3V20.555c0-1.657,1.343-3,3-3h27.829c1.657,0,3,1.343,3,3v37.361
		C39.999,59.574,38.656,60.917,36.999,60.917z"/>
	<path class="st6" d="M39.999,25.233v-4.729c0-1.629-1.321-2.95-2.95-2.95H9.12c-1.629,0-2.95,1.321-2.95,2.95v4.729H39.999z"/>
	<path class="st10" d="M7.795,21.118c0-1.105,0.895-2,2-2h28.879c0.381,0,0.743,0.078,1.077,0.21
		c-0.455-1.042-1.492-1.772-2.702-1.772H9.12c-1.629,0-2.95,1.321-2.95,2.95v4.729h1.625V21.118z"/>
	<path class="st1" d="M36.999,61.417H9.17c-1.93,0-3.5-1.57-3.5-3.5V20.555c0-1.93,1.57-3.5,3.5-3.5h27.829c1.93,0,3.5,1.57,3.5,3.5
		v37.361C40.499,59.846,38.929,61.417,36.999,61.417z M9.17,18.055c-1.379,0-2.5,1.122-2.5,2.5v37.361c0,1.378,1.121,2.5,2.5,2.5
		h27.829c1.379,0,2.5-1.122,2.5-2.5V20.555c0-1.378-1.121-2.5-2.5-2.5H9.17z"/>
	<path class="st11" d="M40.174,17.555h-3.125c1.629,0,2.95,1.321,2.95,2.95v37.462c0,1.629-1.321,2.95-2.95,2.95h3.125
		c1.629,0,2.95-1.321,2.95-2.95V20.505C43.124,18.876,41.803,17.555,40.174,17.555z"/>
	<path class="st1" d="M40.174,61.417h-3.125c-0.276,0-0.5-0.224-0.5-0.5s0.224-0.5,0.5-0.5c1.351,0,2.45-1.099,2.45-2.45V20.505
		c0-1.351-1.1-2.45-2.45-2.45c-0.276,0-0.5-0.224-0.5-0.5s0.224-0.5,0.5-0.5h3.125c1.902,0,3.449,1.547,3.449,3.45v37.462
		C43.623,59.869,42.076,61.417,40.174,61.417z M39.476,60.417h0.698c1.351,0,2.449-1.099,2.449-2.45V20.505
		c0-1.351-1.099-2.45-2.449-2.45h-0.698c0.632,0.625,1.023,1.493,1.023,2.45v37.462C40.499,58.924,40.107,59.791,39.476,60.417z"/>
	<rect x="6.17" y="24.733" class="st1" width="33.758" height="1"/>
	<rect x="8.936" y="20.235" class="st8" width="2.13" height="2.13"/>
	<rect x="12.336" y="20.235" class="st2" width="2.13" height="2.13"/>
	<rect x="15.736" y="20.235" class="st8" width="2.13" height="2.13"/>
	<rect x="19.977" y="20.8" class="st1" width="17.072" height="1"/>
	<rect x="9.212" y="29.363" class="st1" width="6.248" height="1"/>
	<rect x="9.212" y="32.331" class="st1" width="4.189" height="1"/>
	<rect x="14.758" y="32.331" class="st1" width="17.878" height="1"/>
	<rect x="9.212" y="35.299" class="st1" width="6.248" height="1"/>
	<rect x="14.758" y="38.267" class="st1" width="6.248" height="1"/>
	<rect x="22.378" y="38.267" class="st1" width="14.671" height="1"/>
	<rect x="22.378" y="44.203" class="st1" width="14.671" height="1"/>
	<rect x="22.378" y="41.234" class="st1" width="13.453" height="1"/>
	<rect x="14.758" y="41.234" class="st1" width="6.248" height="1"/>
	<rect x="14.758" y="44.203" class="st1" width="6.248" height="1"/>
	<rect x="9.212" y="47.17" class="st1" width="6.248" height="1"/>
	<rect x="16.773" y="47.17" class="st1" width="15.33" height="1"/>
	<rect x="16.773" y="53.106" class="st1" width="15.33" height="1"/>
	<rect x="9.212" y="50.138" class="st1" width="3.964" height="1"/>
	<rect x="14.443" y="50.138" class="st1" width="22.605" height="1"/>
	<rect x="14.443" y="56.074" class="st1" width="22.605" height="1"/>
	<rect x="9.212" y="53.106" class="st1" width="6.248" height="1"/>
	<rect x="9.212" y="56.074" class="st1" width="3.964" height="1"/>
	<rect x="16.853" y="29.363" class="st1" width="20.196" height="1"/>
	<rect x="16.853" y="35.299" class="st1" width="20.196" height="1"/>
</g>
</svg>
