<svg xmlns="http://www.w3.org/2000/svg" viewBox="0 0 64 64"><defs><style>.cls-1{fill:#d1e7ff;}.cls-2{fill:#8bc4ff;}.cls-3{fill:#2e58ff;}</style></defs><title>find question</title><g id="find_question" data-name="find question"><circle class="cls-1" cx="23" cy="23" r="21"/><line class="cls-2" x1="37.85" y1="37.85" x2="42.09" y2="42.09"/><path class="cls-2" d="M62,57a5,5,0,0,1-8.45,3.62l-15-15,7.07-7.07,15,15A5,5,0,0,1,62,57Z"/><path class="cls-3" d="M62,52.14l-15-15a2,2,0,0,0-2.82,0l-2.13,2.12-1.48-1.49a23,23,0,0,0-33.87-31C-7.76,21.24,2.65,46,23,46a22.94,22.94,0,0,0,14.78-5.38l1.49,1.48-2.12,2.13a2,2,0,0,0,0,2.82l15,15A7,7,0,0,0,62,52.14ZM9.56,36.44C-2.42,24.46,6.19,4,23,4S48.43,24.44,36.44,36.44A19,19,0,0,1,9.56,36.44Zm48.6,23.32a2.9,2.9,0,0,1-3.2-.55L41.39,45.63l4.24-4.24L59.18,54.93A3,3,0,0,1,58.16,59.76Z"/><path class="cls-3" d="M24,37a2,2,0,1,1,2-2A2,2,0,0,1,24,37Zm2-2Zm-2,0h0Z"/><path class="cls-3" d="M24,29a2,2,0,0,1-2-2,8.65,8.65,0,0,1,3.45-6.84,4,4,0,1,0-6.1-1.52,2,2,0,0,1-3.64,1.66,8,8,0,1,1,12.19,3A4.68,4.68,0,0,0,26,27,2,2,0,0,1,24,29Z"/></g></svg>